<?xml version="1.0" encoding="utf-8"?>
<!-- Generator: Adobe Illustrator 29.5.0, SVG Export Plug-In . SVG Version: 9.03 Build 0)  -->
<svg version="1.0" id="Capa_1" xmlns:bx="https://boxy-svg.com"
	 xmlns="http://www.w3.org/2000/svg" xmlns:xlink="http://www.w3.org/1999/xlink" x="0px" y="0px" viewBox="0 0 420.38 467.47"
	 style="enable-background:new 0 0 420.38 467.47;" xml:space="preserve">
<style type="text/css">
	.st0{fill:#FFFFFE;}
	.st1{fill:#0760BF;}
</style>
<defs>
	<bx:export>
		<bx:file  format="png" path="Sin título.png"></bx:file>
		<bx:file  format="jpeg" path="Sin título.jpeg"></bx:file>
	</bx:export>
</defs>
<g>
	<path class="st0" d="M221.82,463.78c-1-0.3-1.44,0.24-1.44-0.56c0-1,1.3-1.4,4.4-1.4c10.1,0,32.4-4.4,45.5-9.1c3-1,6.6-1.9,7.8-1.9
		c1.3,0,2.3-0.4,2.3-1c0-0.5,0.9-1,2-1s2-0.4,2-1c0-0.5,1.6-1,3.5-1s3.5,0.4,3.5,0.9c0,1-7.22,3.58-10.22,4.08
		c-1,0.2-1.12-0.56-1.42-0.16c-1.1,1.4-4.72,2.68-5.72,2.08c-0.6-0.3-1.56-0.56-1.76,0.04c-0.1,0.5-2.44,2.64-4.34,2.84
		c-4,0.6-6.44,1.54-8.54,2.44c-4.6,1.8-13.42,3.44-14.92,3.04c-1-0.3-1.9-2.44-2.1-2.04C241.96,460.94,224.32,464.48,221.82,463.78z
		"/>
	<path class="st0" d="M201.38,448.22c-28-3.3-47.8-9.5-68.8-21.5c-36.4-20.9-57-54.8-60.8-100.4c-0.7-8.6-2.7-13.3-5.9-14
		c-1.1-0.2-6.8-0.6-12.6-0.8c-9.3-0.3-11.2-0.7-15.2-3c-2.5-1.5-5.9-4.4-7.6-6.4c-12-14.5-12-53.9-0.1-66.7l3.9-4.1h12.8
		c10.6,0,12.8,0.3,13,1.5c0.9,7,1.8,9.6,3.9,11.7c2.4,2.3,2.5,2.4,5.3,0.7c1.6-1,3.4-2.8,4-4.1c1.5-3.4,6.7-3,15.5,1.1l7.3,3.3
		l0.6,9.2c1.7,22.9,12.5,40.4,30.7,49.5c12,6,20.3,7.5,31,5.3c28.5-5.6,48.6-30.9,46.4-58.3c-0.6-7.6-0.5-8.3,1.4-9.3
		c2.6-1.4,16.1-1.5,19.6-0.1c2.5,0.9,2.6,1.1,2.6,10.8c0,11.5,1.6,18.5,6.6,28.4c7.1,14.2,20.9,24.6,37.6,28.4
		c6.3,1.5,8.3,1.5,14.6,0.5c16.8-2.8,27.4-8.8,37.4-21.3c7.8-9.5,11.8-21.5,11.8-35.4v-8.1l8.3-3.2c10.3-3.9,13.3-4,14.1-0.6
		c0.4,1.4,1.8,3.2,3.2,4.1c4.8,3.2,10-1.5,11.2-10.3l0.7-4.8h7c8.7,0.1,11.5,0.8,15.5,4.2c6.3,5.3,7.5,9.7,7.4,28.3
		c0,15.3-0.2,17.1-2.7,24.3c-3.2,9.1-6.3,14.3-10.9,18.2c-5.5,4.7-11.1,6.6-18.1,6.4c-3.4-0.1-7.3,0.3-8.5,1
		c-3.4,1.8-6.2,7-6.2,11.4c0,8.1-3.4,26.7-6.7,37.2c-4.7,14.5-7.1,19.3-18,35.5c-5.8,8.7-23.5,23.9-37.2,31.9
		c-12.8,7.6-31.4,14-51.1,17.6C236.18,447.92,208.58,449.02,201.38,448.22L201.38,448.22z M229.78,418.72c5.5-1.1,7.7-2.4,7-4.3
		c-0.4-1-1.6-1.1-4.7-0.5c-5.4,1-18.8,1-25.2-0.1c-4.7-0.7-7.5,0-7.5,2c0,1,6.7,3.1,13,3.9
		C218.18,420.52,221.68,420.32,229.78,418.72L229.78,418.72z M232.38,389.12c13-3.1,27.1-12.2,30.1-19.5c1.2-2.9,1.1-3.2-1.5-5.5
		l-2.8-2.4l-5.7,5.8c-12.1,12.5-28.5,17-47.1,12.7c-8.1-1.8-16.9-7.1-22.3-13.4l-3.7-4.4l-2.5,2.4c-1.4,1.3-2.5,3-2.5,3.7
		c0,2.3,8,10.2,14.2,13.9c7,4.2,15,7.2,22.7,8.3C217.68,391.72,223.18,391.32,232.38,389.12z M146.38,380.82c1-0.5,2.6-3.1,3.6-5.7
		c2.9-8.1,10.4-24.4,13.2-28.5c2.4-3.6,2.4-4,0.9-5.6c-1.6-1.5-2.1-1.2-7.3,4.3c-7.4,8-12.8,16.2-15.3,23.7
		c-2.6,7.6-2.6,8.3-0.1,10.8C143.68,382.12,143.88,382.12,146.38,380.82L146.38,380.82z M293.78,380.22c4.5-4.5,3.7-10-3-21.3
		c-4-6.9-16.9-19.5-18.9-18.7c-1.9,0.7-1.9,2.6-0.1,5.1c2.5,3.7,13.7,25.4,15.1,29.6C289.38,381.82,290.98,383.12,293.78,380.22
		L293.78,380.22z M222.68,341.82c3.1-0.6,7.7-2,10.1-3.1c4.4-1.9,9.6-6.9,9.6-9.3c0-1.1-3.6-5.6-4.4-5.6c-0.2,0-2.8,1.2-5.7,2.7
		c-4.4,2.3-6.7,2.8-14.8,3.1c-7.8,0.3-10.3,0-13.1-1.5l-3.5-1.8l-0.1-7.9c0-4.5-0.5-8.1-1-8.3c-3.5-1.2-10.4,13.6-9,19.2
		c1.4,5.5,11.4,11.3,22.1,12.8c1.7,0.2,3.3,0.5,3.6,0.6C216.78,342.72,219.58,342.32,222.68,341.82L222.68,341.82z M116.38,323.12
		c0-0.5-2.9-2.9-6.4-5.6c-5.5-4-13.2-13.3-15-18.2c-0.2-0.6-0.8-0.6-1.6,0.1c-2.5,2.5,4.9,12.9,14.1,19.8
		C113.18,323.52,116.38,324.92,116.38,323.12z M322.98,319.42c9.3-6.7,16.8-17.2,14-19.5c-1-0.9-1.7-0.6-2.8,1.1
		c-0.8,1.3-1.8,3.2-2.2,4.4c-0.9,2.9-8.6,10.7-13.6,13.9c-2.2,1.4-3.8,3-3.5,3.5C315.88,324.42,316.68,324.02,322.98,319.42z"/>
	<path class="st0" d="M302.38,440.22c0-1.5,0.6-2.4,1.5-2.4c0.8,0,1.5-0.4,1.5-1c0-0.5,1.6-1,3.7-1c3.5,0,3.02-1.06,1.22,0.94
		c-1,1.1-2.21,2.19-3.01,2.19c-0.7,0-1.01-0.66-1.01-0.16s-2.24,1.58-3.34,1.88C301.33,441.08,302.38,442.12,302.38,440.22z"/>
	<path class="st0" d="M317.38,430.32c0-2,0.5-2.5,2.5-2.5c1.8,0,2.5-0.5,2.5-1.9c0-2.4,3.6-5.1,6.8-5.1c1.9,0,2.2-0.76,1.3,0.24
		c-0.6,0.8-1.57,0.55-1.27,0.85c0.3,0.4,0.01,1.36-0.39,1.06c-0.3-0.3-1.49,0.3-2.29,1.4c-0.8,1.1-1.33,2.38-2.13,2.38
		c-0.8,0-1.81,1.18-2.51,2.18c-0.7,1-2.58,2.2-3.48,2.6C317.01,432.04,317.38,432.22,317.38,430.32z"/>
	<path class="st0" d="M56.51,330.59c2.97-2.16-2.24-2.98-4.84-3.08c-5.7-0.22-8.49-0.8-10.69-2c-3.3-1.9-1.31-0.79,7.79-0.09
		l8.6,0.7v3.3C57.38,333.12,57.31,333.39,56.51,330.59z"/>
	<path class="st0" d="M376.93,327.29c-3.1-0.6-1.86-2.47,1.44-2.47c1.7,0,3-0.4,3-1c0-0.5,1.6-1,3.5-1s3.5,0.18,3.5,0.68
		c0,0.6-0.78,1-1.58,1s-1.42,0.1-1.42,0.7c0,0.5-1.04,0.72-1.45,0.42c-0.5-0.3-1.42-0.14-2.82,0.46
		C379.81,326.77,377.83,327.49,376.93,327.29z"/>
	<path class="st0" d="M24.4,313.32c-0.4-0.8,0.08-3.27-0.52-2.87c-0.5,0.3-5.73,0.2-5.43-0.4c0.3-0.5,1.87-3.28,0.47-4.78
		c-2.9-3.2-7.24-2.45-4.54-2.45c1.6,0,2,0.7,2,3s0.4,3,2,3s2,0.7,2,3C20.38,315.02,25.3,315.72,24.4,313.32z"/>
	<path class="st0" d="M323.88,257.72c0,23-18.6,41.7-41.7,41.7c-23,0-41.7-18.7-41.7-41.7c0-23,18.7-41.7,41.7-41.7
		C305.28,216.02,323.88,234.72,323.88,257.72z M270.08,264.12c4-6.5,6.4-8.3,11.4-8.3c4.9,0,5.6,0.5,11.3,8.5c1.6,2.4,2,2.5,3.3,1.2
		c1.4-1.4,1.3-1.9-0.6-4.5c-1.1-1.7-2.1-3.3-2.1-3.8c0-1.8-5.5-7.7-8.4-8.9c-2.6-1.1-3.6-1.1-6.6,0.1c-1.9,0.8-4.2,2.2-5.2,3.1
		c-2.6,2.4-7.9,12.5-7.4,14C266.58,267.62,268.18,267.02,270.08,264.12L270.08,264.12z"/>
	<path class="st0" d="M192.58,257.52c0,23-18.7,41.7-41.7,41.7c-23.1,0-41.7-18.7-41.7-41.7c0-23.1,18.6-41.7,41.7-41.7
		C173.88,215.82,192.58,234.42,192.58,257.52z M141.38,263.82c0.6-1.5,2.4-4,3.9-5.4c2.4-2.3,3.6-2.7,7.7-2.4
		c4.6,0.3,5.1,0.6,8.8,5.6c3.4,4.5,4.2,5.1,5.3,3.9c1.2-1.2,0.9-2.3-1.9-7.6c-5.3-10.1-11.2-12.9-18.3-8.9c-2.2,1.3-4.7,3.7-5.5,5.3
		c-0.8,1.7-2.6,4.7-3.9,6.8c-1.8,2.9-2,4.1-1.1,5.2C137.98,268.22,139.98,267.22,141.38,263.82L141.38,263.82z"/>
	<path class="st0" d="M414.38,291.42c0-1.9,0.3-4.1,0.6-5c0.9-2.3,0.79-4.39,0.79-1.99c0,1.1-0.55,1.91-0.95,1.91
		c-0.4,0,0.01,1.19,0.3,1.99c-0.33,0.8-1.21,1.71-0.52,1.71s0.75,1.34,0.75,2.14s-1.43,1.29-2.03,1.29
		C412.81,293.48,414.38,293.32,414.38,291.42z"/>
	<path class="st0" d="M329.58,229.92c-2.2-4.9-13.4-14.6-21.4-18.5c-4-1.9-11.2-4.3-16-5.3c-7.5-1.5-9.6-1.5-16-0.5
		c-15,2.6-25,7.6-35.4,17.9c-8.1,8-10,8.6-16.7,5.8c-2-0.8-5.5-1.5-7.7-1.5s-5.7,0.7-7.7,1.5c-7.1,3-9.2,2.2-16.5-5.9
		c-10.9-12-24.8-18-41.3-17.9c-15.1,0.1-31.4,6.9-41.2,17.2c-2.9,3-5.5,6.3-5.9,7.3c-1,3.1-7.8,2.3-18.6-2.3
		c-10.9-4.6-10.7-4.3-8.7-14.1c2.3-11.5,11.4-36.8,13.8-38.2c0.5-0.3,9.4-2.2,19.8-4.2c22.8-4.3,34.7-7.2,48.2-11.9
		c34.7-12.1,61.8-31.7,78.3-56.7c4.6-7.1,5.4-7.8,8.4-7.8c2.7,0,3.8,0.8,6.9,5.2c6.4,8.8,22.2,24.3,33.9,33.2
		c6.1,4.7,20.8,14.7,32.6,22.3c11.9,7.7,23.3,15.2,25.3,16.8c7.2,5.4,14.8,26.2,16.4,44.5l0.6,6.6l-3.9,1.7
		c-9.6,4.1-20.1,7.7-22.9,7.7C331.48,232.82,330.58,232.22,329.58,229.92L329.58,229.92z"/>
	<path class="st0" d="M43.98,217.02c-1.5-2.5-4.8-24.7-5.3-36.2c-1-22.1,1.7-40.9,8.4-60c13.5-38.4,36.4-62.8,79.8-85.1
		c22.5-11.6,55.5-17.6,90-16.5c20.7,0.6,32.8,2.4,47,6.7c15.1,4.7,25.5,10.1,34.7,18c11.1,9.6,14.7,11.5,24.8,12.9
		c14.2,2,25.8,7.5,33.9,15.9c11.4,12.1,21.9,30.5,26.7,46.9c5.9,20.5,7.3,48.5,3.5,73.2c-3.5,22.7-3.6,23-10.2,23
		c-4.1,0-4.9-1.1-4.9-6.4c0-4.6-3.5-17.8-6.7-25.6c-1.4-3.6-4.8-9.2-7.4-12.6c-6.4-8.1-12.4-12.6-43.4-32.4
		c-28.4-18.1-45.6-34.1-56.9-52.8c-10.7-17.7-13-19.7-17.3-14.9c-2,2-10.3,18.9-10.3,20.7c0,1.8-12.1,16.9-18.6,23.2
		c-13,12.6-38.3,27.4-56.9,33.3c-17.1,5.5-40.5,10.5-58,12.6c-4.4,0.5-8.8,1.2-9.7,1.5c-6.2,1.9-18,25.4-22.3,44.1
		c-0.8,3.8-1.7,7.8-2,9.1c-0.5,2.1-1,2.2-9.5,2.2C48.48,217.82,44.28,217.52,43.98,217.02L43.98,217.02z M134.78,104.22
		c12.8-1.9,24.6-5.5,36.1-10.7c14.8-6.8,23-13,19.7-15.1c-0.4-0.2-3.2,1.1-6.2,3c-14.8,9.2-39.4,16.1-61.3,17.1
		c-10.5,0.5-14.2,1-15.4,2.1c-1.4,1.4-1.3,1.8,0.7,3.4C111.28,106.32,120.78,106.42,134.78,104.22z"/>
	<path class="st0" d="M26.38,214.32c0-0.8-0.4-1.5-0.9-1.5s-0.7-0.9-0.4-2c0.9-3.5,3.3-2.4,3.3,1.5c0,1.9-0.4,3.5-1,3.5
		C26.88,215.82,26.38,215.12,26.38,214.32L26.38,214.32z"/>
	<path class="st0" d="M398.38,205.32c0-3.7,0.3-4.5,1.8-4.5c1.9,0,0.55,3.9-0.95,7.3C397.83,211.22,398.38,209.92,398.38,205.32
		L398.38,205.32z"/>
	<path class="st0" d="M69.33,61.42c0.7-1.1,5.5-5.95,6.5-6.15c1.4-0.4-2.45-0.65-2.45,1.15c0,2-0.5,2.4-3,2.4
		C67.68,58.82,68.23,63.12,69.33,61.42z"/>
</g>
<g>
	<path class="st1" d="M201.38,464.62c-22.3-1.4-38.2-5.3-58-14.3c-35.1-16-60.9-40.1-74.1-69c-4.1-9.2-10.7-31.1-11.9-40
		c-1.8-13.1-1.4-12.5-6.3-12.5c-14.8,0-32.3-11.7-39.5-26.2c-4.5-9.1-6.2-16.6-6.8-30.3c-1.1-21.7,3.8-36.8,15.9-48.9l6-6.1l-1.7-8
		c-3-14.3-4.1-34.1-2.8-49.9c2-23.7,6.5-40.2,16.2-60.1c17-34.6,46.7-61.6,88.4-80.5c17.8-8,43.6-14.3,66.3-16.2
		c31.3-2.5,78.2,6,97.7,17.7c3.2,1.9,6,3.5,6.3,3.5c1,0,10.1,6.6,15.4,11.1c5.3,4.6,6,4.9,15.5,6.4c25.4,4.1,49.1,24.1,63.1,53.5
		c5.3,11.2,10.5,26.6,13,38.7c2.5,12.5,2.5,51.8,0,61.3c-3.4,12.6-4.7,19.5-4.2,21.5c0.3,1.1,2.5,3.4,4.8,5
		c18.1,13.1,15.74,45.95,9.6,76.3c-0.63,3.1-2.71,6.88-2.9,7.2s-2.36,3.68-6.7,7.8c-7.59,7.21-18.1,13.6-26.5,15
		c-3.9,0.7-4.3,1-4.5,3.7c-0.6,7-2.6,18.5-4.5,26c-6.3,25.3-15.9,41.7-35.7,61.6c-20.5,20.4-42.4,32.4-74.3,40.7
		C240.68,464.52,223.48,466.02,201.38,464.62z M241.38,443.32c19.4-3.5,38.2-10,51.1-17.6c13.7-8,31.4-23.2,37.2-31.9
		c10.9-16.2,13.3-21,18-35.5c3.3-10.5,6.7-29.1,6.7-37.2c0-8.5,6.6-14,15.6-12.8c4.1,0.5,6.3,0.2,9.6-1.3c9.2-4,14.1-10.1,18.5-22.9
		c2.4-6.9,2.7-9.3,2.7-21.3c0.1-11.7-0.2-14.1-2.1-18.1c-3.5-7.7-9-11.2-17.8-11.3l-3.9-0.1l-0.8,4.9c-0.9,6.1-3.4,9.7-8.2,11.5
		c-3.3,1.3-4.1,1.2-7.3-0.3c-2-1-3.9-2.8-4.6-4.5l-1-2.8l-7.9,3l-7.8,3v8.1c0,9.6-2,18.7-5.6,25.9c-17.2,34.2-64.4,42.3-91.5,15.7
		c-11.4-11.2-16.9-24.9-16.9-42.2c0-9.7-0.1-9.9-2.6-10.8c-3.3-1.3-11-1.3-13.4,0c-1.6,0.9-1.8,1.9-1.3,8.3
		c2.1,27.5-17.8,53.4-45.4,59.2c-14.1,3-26.2,1.3-39.4-5.6c-17.3-9-28-26.8-29.6-49l-0.6-9.2l-7.5-3.5c-7.2-3.2-7.6-3.3-8.9-1.6
		c-0.7,1-1.3,2-1.3,2.4c0,1.3-6,4-8.9,4c-5.5,0-8.1-3.8-9.4-14c-0.2-1.2-2.1-1.5-10-1.5h-9.8l-3.9,4.1c-6.9,7.4-10.4,24.8-8,39.5
		c2.4,14.6,6.9,22.4,15.8,27.7c4.3,2.5,5.6,2.7,15.2,2.8c5.8,0.1,11.4,0.4,12.5,0.7c3.3,1.1,5.2,5.7,5.9,14.2
		c3.8,45.6,24.4,79.5,60.8,100.4c21,12,40.7,18.1,68.8,21.5C210.88,446.02,232.88,444.92,241.38,443.32z M320.08,257.62
		c0-20.9-17-37.9-37.9-37.9c-20.9,0-37.9,17-37.9,37.9s17,37.9,37.9,37.9C303.08,295.52,320.08,278.52,320.08,257.62z
		 M188.58,257.42c0-20.9-16.9-37.8-37.8-37.8c-20.9,0-37.8,16.9-37.8,37.8c0,20.9,16.9,37.9,37.8,37.9
		C171.68,295.32,188.58,278.32,188.58,257.42z M344.38,225.82c13.3-5,13.2-4.9,12.5-8.9c-3.6-21.3-9.6-36.6-16.2-41.6
		c-2-1.6-13.4-9.1-25.3-16.8c-11.8-7.6-26.5-17.6-32.6-22.3c-11.7-8.9-27.5-24.4-33.9-33.2c-2-2.9-3.8-5.2-3.9-5.2
		c-0.2,0-2.6,3.5-5.4,7.7c-16.5,25.1-43.6,44.7-78.3,56.8c-13.5,4.7-25.4,7.6-48.2,11.9c-10.4,2-19.3,3.9-19.9,4.2
		c-2.2,1.4-10.9,25-13.2,36.1l-1.3,6.2l9.6,4c10.9,4.6,11.7,4.8,12.5,2.3c1.1-3.5,11.2-12.9,17.6-16.4c10.5-5.8,19.7-8.1,32.5-8.2
		c13.2,0,19.5,1.3,29.8,6.7c6,3,9.3,5.7,14.5,11.4l6.8,7.4l3.7-1.6c4.7-1.9,16.6-2,21.3,0l3.5,1.4l7.3-7.2
		c9.8-9.7,19.2-14.7,33.4-17.6c12.5-2.6,30,0,41.6,6.2c7,3.7,17.9,13.5,19.8,17.8c0.9,2,1.8,2.7,2.8,2.3
		C336.18,228.92,340.28,227.42,344.38,225.82z M59.88,212.52c0.3-1.2,1.2-5.2,2-9c4.3-18.7,16.1-42.2,22.3-44.1
		c0.9-0.3,5.3-1,9.7-1.5c17.5-2.1,40.9-7.1,58-12.6c18.6-5.9,43.9-20.7,56.9-33.3c6.5-6.3,18.6-21.4,18.6-23.2c0-0.4,2-5.1,4.4-10.3
		c4.7-10,8.1-13.7,12.6-13.7c4.4,0,7.5,3.3,15.7,16.8c12.4,20.4,28.8,35.7,57.8,54.2c31,19.8,37,24.3,43.4,32.4
		c2.6,3.4,6,9,7.4,12.6c3.3,7.9,6.7,21.1,6.7,25.9c0,4.5,1.2,6.4,3.3,5.5c1.7-0.6,1.9-1.1,3.6-8.9c5.9-27.7,5.4-57.5-1.3-80.7
		c-4.8-16.4-15.3-34.8-26.7-46.9c-8.1-8.4-19.7-13.9-33.9-15.9c-10.1-1.4-13.7-3.3-24.8-12.9c-23.1-19.9-65.3-28.8-110.7-23.2
		c-35.1,4.3-53.8,11.6-86.2,33.9c-43,29.7-65.1,88.6-54.2,145c1.1,5.8,2.2,10.9,2.4,11.2s3.1,0.6,6.4,0.7
		C58.78,214.72,59.38,214.52,59.88,212.52z"/>
	<path class="st1" d="M208.58,422.72c-8-1.2-13.6-3.8-14-6.4c-0.2-1.2,0.9-3.2,2.7-4.9c2.9-2.8,3.3-2.9,7-1.7c7,2.1,19,2.4,26.6,0.8
		c6.9-1.5,7-1.5,8.7,0.6c3.6,4.6,1.1,9-5.9,10.5C225.88,423.32,215.38,423.72,208.58,422.72L208.58,422.72z"/>
	<path class="st1" d="M208.38,393.82c-18.5-2.9-38-16.3-38-26.1c0-2.6,6.1-8.9,8.8-8.9c1.1,0,4.8,2.8,8.3,6.3
		c18.3,18.1,44.2,17.9,62-0.5c6.2-6.5,9.6-7.4,14.3-3.7c2,1.6,2.6,2.9,2.6,6c0,5.1-1.9,8.6-6.9,13.2
		C248.08,390.42,225.28,396.52,208.38,393.82L208.38,393.82z"/>
	<path class="st1" d="M138.98,383.32c-2-1.9-2.6-3.3-2.6-6.8c0-5.1,2.9-14.2,6.5-20.3c3.5-6,14.3-18.2,16.9-19.1
		c7.9-2.6,11.6,4.6,6.3,12.5c-2.7,4.1-10.2,20.4-13.2,28.6c-1.4,3.8-2.5,5.1-5.1,6.2C143.18,386.32,142.08,386.22,138.98,383.32
		L138.98,383.32z"/>
	<path class="st1" d="M288.58,384.72c-1.3-0.5-2.9-2.4-3.5-4.1c-1.3-3.8-13.3-27.6-16.5-32.8c-2.7-4.4-2.8-7.4-0.2-10
		c3.6-3.6,6.5-2.6,14.6,5.3c17,16.5,22.7,36.6,11.7,41.6C291.88,386.02,291.68,386.02,288.58,384.72z"/>
	<path class="st1" d="M209.88,345.12c-11.1-1.6-19.4-6.5-22.2-13c-1.1-2.8-1.1-4.2,0.1-9.6c2.9-12.2,5.4-15.7,11.7-15.7
		c5.2,0,6.5,1.9,4.9,7.4c-1.7,6.3-1.1,8.8,3,10.9c5,2.6,15.3,1.8,22.1-1.7c8.3-4.3,13.6-3.2,16,3.2c1.3,3.3-0.4,8.2-3.9,11.4
		C235.18,343.82,221.98,346.82,209.88,345.12L209.88,345.12z"/>
	<path class="st1" d="M107.98,324.82c-13.6-8.7-23-24.3-17.1-28.6c3.6-2.7,6.1-1.7,9.1,3.4c4.5,7.7,7.1,10.7,13.5,15.3
		c6.3,4.6,7.8,7.3,5.9,10.8C117.78,328.72,113.68,328.42,107.98,324.82z"/>
	<path class="st1" d="M311.78,325.32c-2.3-3.5-1.5-5.5,3.5-8.9c6.3-4.2,11.9-10.3,14.4-15.4c2.5-5.5,5.6-7.1,9.2-4.8
		c6.6,4.3-0.7,18.1-14.6,27.4C317.18,328.42,314.08,328.82,311.78,325.32L311.78,325.32z"/>
	<path class="st1" d="M263.58,269.52c-2.7-3.2-2.4-6.3,1.3-13c4.1-7.5,7-10.2,12.5-11.8c7.1-2.2,14.6,1.1,18,7.8
		c0.8,1.5,2.3,4.1,3.4,5.7c5.5,8.1-2.6,17.3-8.6,9.6c-1.3-1.7-3.4-4.4-4.6-6c-1.3-1.7-3.2-3-4.2-3c-1.7,0-5.2,3.6-9.3,9.4
		C270.08,271.02,265.38,271.82,263.58,269.52L263.58,269.52z"/>
	<path class="st1" d="M135.28,270.42c-3.4-1.7-3.8-7.5-0.7-12.4c1.2-2,3-5,3.8-6.7c2.4-4.7,8.4-7.6,15.1-7.2
		c7.5,0.4,10.7,2.9,15.3,12c2.9,6,3.5,7.9,2.7,9.8c-2.5,6.7-7.1,6.2-12.7-1.3c-2.2-2.9-4.8-5.4-5.8-5.6c-2.2-0.5-7,3.9-8.6,7.9
		C142.88,270.42,138.58,272.12,135.28,270.42z"/>
	<path class="st1" d="M110.68,108.82c-5.4-0.8-7.3-2.5-7.3-6.6c0-5.5,1.4-6,16.7-6.7c22-1.1,44.5-7.3,60.5-16.7
		c6.7-4,11.4-5,13.6-2.8c1.3,1.3,1.6,4.7,0.6,7.3c-1.7,4.2-22.9,15.2-38.4,19.8C142.88,107.22,118.98,110.22,110.68,108.82
		L110.68,108.82z"/>
</g>
</svg>
